<?xml version="1.0" standalone="no"?><!DOCTYPE svg PUBLIC "-//W3C//DTD SVG 1.1//EN" "http://www.w3.org/Graphics/SVG/1.1/DTD/svg11.dtd"><svg t="1525657698636" class="icon" style="" viewBox="0 0 1024 1024" version="1.1" xmlns="http://www.w3.org/2000/svg" p-id="7286" xmlns:xlink="http://www.w3.org/1999/xlink" width="20" height="20"><defs><style type="text/css"></style></defs><path d="M418.853553 552.975227 115.924219 552.975227c-27.884071 0-50.487881 22.604834-50.487881 50.487881l0 302.928311c0 27.884071 22.604834 50.487881 50.487881 50.487881L418.853553 956.8793c27.884071 0 50.487881-22.604834 50.487881-50.487881L469.341435 603.463108C469.341435 575.579037 446.736601 552.975227 418.853553 552.975227zM427.2682 881.147478c0 18.58938-15.07023 33.658587-33.658587 33.658587L141.16816 914.806065c-18.58938 0-33.658587-15.07023-33.658587-33.658587L107.509573 628.707049c0-18.58938 15.07023-33.658587 33.658587-33.658587l252.440429 0c18.58938 0 33.658587 15.07023 33.658587 33.658587L427.267177 881.147478zM906.905118 552.975227 603.976808 552.975227c-27.884071 0-50.487881 22.604834-50.487881 50.487881l0 302.928311c0 27.884071 22.604834 50.487881 50.487881 50.487881l302.928311 0c27.884071 0 50.487881-22.604834 50.487881-50.487881L957.393 603.463108C957.393 575.579037 934.789189 552.975227 906.905118 552.975227zM915.319765 881.147478c0 18.58938-15.07023 33.658587-33.658587 33.658587L629.220748 914.806065c-18.58938 0-33.658587-15.07023-33.658587-33.658587L595.562161 628.707049c0-18.58938 15.07023-33.658587 33.658587-33.658587l252.440429 0c18.588357 0 33.658587 15.07023 33.658587 33.658587L915.319765 881.147478zM728.099756 457.461873c15.044648 15.044648 39.437198 15.044648 54.481845 0l163.445536-163.445536c15.044648-15.044648 15.044648-39.437198 0-54.481845L782.581602 76.088956c-15.044648-15.044648-39.437198-15.044648-54.481845 0L564.653197 239.534492c-15.044648 15.044648-15.044648 39.437198 0 54.481845L728.099756 457.461873zM611.004875 249.800299l127.360689-127.360689c9.378601-9.378601 24.583908-9.378601 33.962509 0l127.360689 127.360689c9.378601 9.378601 9.378601 24.583908 0 33.962509l-127.360689 127.360689c-9.378601 9.378601-24.583908 9.378601-33.962509 0l-127.360689-127.360689C601.627297 274.385231 601.627297 259.178901 611.004875 249.800299zM418.853553 64.922638 115.924219 64.922638c-27.884071 0-50.487881 22.604834-50.487881 50.487881l0 302.928311c0 27.884071 22.604834 50.487881 50.487881 50.487881L418.853553 468.826711c27.884071 0 50.487881-22.604834 50.487881-50.487881L469.341435 115.411543C469.341435 87.527472 446.736601 64.922638 418.853553 64.922638zM427.2682 393.095913c0 18.58938-15.07023 33.658587-33.658587 33.658587L141.16816 426.7545c-18.58938 0-33.658587-15.07023-33.658587-33.658587L107.509573 140.655484c0-18.58938 15.07023-33.658587 33.658587-33.658587l252.440429 0c18.58938 0 33.658587 15.07023 33.658587 33.658587L427.267177 393.095913z" p-id="7287"></path></svg>